grf
version=1
nRows=57
nColumns=19
inDegrees=yes
endheader
time	ground_force_2_vx	ground_force_2_vy	ground_force_2_vz	ground_force_2_px	ground_force_2_py	ground_force_2_pz	ground_moment_2_mx	ground_moment_2_my	ground_moment_2_mz	ground_force_3_vx	ground_force_3_vy	ground_force_3_vz	ground_force_3_px	ground_force_3_py	ground_force_3_pz	ground_moment_3_mx	ground_moment_3_my	ground_moment_3_mz
0.000000	0.000000	0.000000	0.000000	-0.271350	0.000000	0.211889	0.000000	0.000000	0.000000	0.000000	0.000000	0.000000	-0.895653	0.000000	0.337302	0.000000	0.000000	0.000000
0.001000	0.000000	0.000000	0.000000	-0.270187	0.000000	0.211795	0.000000	0.000000	0.000000	0.000000	0.000000	0.000000	-0.894662	0.000000	0.337421	0.000000	0.000000	0.000000
0.002000	0.000000	0.000000	0.000000	-0.268953	0.000000	0.211695	0.000000	0.000000	0.000000	0.000000	0.000000	0.000000	-0.893609	0.000000	0.337548	0.000000	0.000000	0.000000
0.003000	0.000000	0.000000	0.000000	-0.267638	0.000000	0.211588	0.000000	0.000000	0.000000	0.000000	0.000000	0.000000	-0.892485	0.000000	0.337683	0.000000	0.000000	0.000000
0.004000	0.000000	0.000000	0.000000	-0.266230	0.000000	0.211474	0.000000	0.000000	0.000000	0.000000	0.000000	0.000000	-0.891280	0.000000	0.337828	0.000000	0.000000	0.000000
0.005000	0.000000	0.000000	0.000000	-0.264716	0.000000	0.211351	0.000000	0.000000	0.000000	0.000000	0.000000	0.000000	-0.889982	0.000000	0.337984	0.000000	0.000000	0.000000
0.006000	0.000000	0.000000	0.000000	-0.263079	0.000000	0.211218	0.000000	0.000000	0.000000	0.000000	0.000000	0.000000	-0.888577	0.000000	0.338154	0.000000	0.000000	0.000000
0.007000	0.000000	0.000000	0.000000	-0.261301	0.000000	0.211074	0.000000	0.000000	0.000000	0.000000	0.000000	0.000000	-0.887046	0.000000	0.338338	0.000000	0.000000	0.000000
0.008000	0.000000	0.000000	0.000000	-0.259357	0.000000	0.210916	0.000000	0.000000	0.000000	0.000000	0.000000	0.000000	-0.885370	0.000000	0.338539	0.000000	0.000000	0.000000
0.009000	0.000000	0.000000	0.000000	-0.257218	0.000000	0.210742	0.000000	0.000000	0.000000	0.000000	0.000000	0.000000	-0.883521	0.000000	0.338762	0.000000	0.000000	0.000000
0.010000	0.000000	0.000000	0.000000	-0.254848	0.000000	0.210550	0.000000	0.000000	0.000000	0.000000	0.000000	0.000000	-0.881467	0.000000	0.339009	0.000000	0.000000	0.000000
0.011000	0.000000	0.000000	0.000000	-0.252201	0.000000	0.210335	0.000000	0.000000	0.000000	0.000000	0.000000	0.000000	-0.879165	0.000000	0.339286	0.000000	0.000000	0.000000
0.012000	0.000000	0.000000	0.000000	-0.249218	0.000000	0.210093	0.000000	0.000000	0.000000	0.000000	0.000000	0.000000	-0.876563	0.000000	0.339599	0.000000	0.000000	0.000000
0.013000	0.000000	0.000000	0.000000	-0.245823	0.000000	0.209817	0.000000	0.000000	0.000000	0.000000	0.000000	0.000000	-0.873591	0.000000	0.339957	0.000000	0.000000	0.000000
0.014000	0.000000	0.000000	0.000000	-0.241914	0.000000	0.209500	0.000000	0.000000	0.000000	0.000000	0.000000	0.000000	-0.870155	0.000000	0.340371	0.000000	0.000000	0.000000
0.015000	0.000000	0.000000	0.000000	-0.237357	0.000000	0.209130	0.000000	0.000000	0.000000	0.000000	0.000000	0.000000	-0.866128	0.000000	0.340855	0.000000	0.000000	0.000000
0.016000	0.000000	0.000000	0.000000	-0.231959	0.000000	0.208692	0.000000	0.000000	0.000000	0.000000	0.000000	0.000000	-0.861331	0.000000	0.341433	0.000000	0.000000	0.000000
0.017000	0.000000	0.000000	0.000000	-0.225452	0.000000	0.208163	0.000000	0.000000	0.000000	0.000000	0.000000	0.000000	-0.855506	0.000000	0.342134	0.000000	0.000000	0.000000
0.018000	0.000000	0.000000	0.000000	-0.217432	0.000000	0.207512	0.000000	0.000000	0.000000	0.000000	0.000000	0.000000	-0.848266	0.000000	0.343005	0.000000	0.000000	0.000000
0.019000	0.000000	0.000000	0.000000	-0.207278	0.000000	0.206688	0.000000	0.000000	0.000000	0.000000	0.000000	0.000000	-0.838998	0.000000	0.344120	0.000000	0.000000	0.000000
0.020000	0.000000	0.000000	0.000000	-0.193973	0.000000	0.205608	0.000000	0.000000	0.000000	0.000000	0.000000	0.000000	-0.826682	0.000000	0.345602	0.000000	0.000000	0.000000
0.021000	0.000000	0.000000	0.000000	-0.175734	0.000000	0.204128	0.000000	0.000000	0.000000	0.000000	0.000000	0.000000	-0.809474	0.000000	0.347673	0.000000	0.000000	0.000000
0.022000	0.000000	0.000000	0.000000	-0.149119	0.000000	0.201967	0.000000	0.000000	0.000000	0.000000	0.000000	0.000000	-0.783661	0.000000	0.350780	0.000000	0.000000	0.000000
0.023000	0.000000	0.000000	0.000000	-0.106516	0.000000	0.198509	0.000000	0.000000	0.000000	0.000000	0.000000	0.000000	-0.740513	0.000000	0.355973	0.000000	0.000000	0.000000
0.024000	0.000000	0.000000	0.000000	-0.027086	0.000000	0.192061	0.000000	0.000000	0.000000	0.000000	0.000000	0.000000	-0.653456	0.000000	0.366450	0.000000	0.000000	0.000000
0.025000	0.000000	0.000000	0.000000	0.174059	-0.000000	0.175734	0.000000	0.000000	0.000000	0.000000	0.000000	0.000000	-0.384803	0.000000	0.398782	0.000000	0.000000	0.000000
0.026000	0.000000	0.000000	0.000000	1.707908	-0.000000	0.051226	0.000000	0.000000	0.000000	0.000000	0.000000	0.000000	-12.535175	0.000000	-1.063491	0.000000	0.000000	0.000000
0.027000	0.000000	0.000000	0.000000	-1.149613	0.000000	0.283181	0.000000	0.000000	0.000000	0.000000	0.000000	0.000000	-1.391548	0.000000	0.277622	0.000000	0.000000	0.000000
0.028000	0.000000	0.000000	0.000000	-0.642062	0.000000	0.241981	0.000000	0.000000	0.000000	0.000000	0.000000	0.000000	-1.155567	0.000000	0.306022	0.000000	0.000000	0.000000
0.029000	0.000000	0.000000	0.000000	-0.510523	0.000000	0.231304	0.000000	0.000000	0.000000	0.000000	0.000000	0.000000	-1.074549	0.000000	0.315772	0.000000	0.000000	0.000000
0.030000	0.000000	0.000000	0.000000	-0.449995	0.000000	0.226390	0.000000	0.000000	0.000000	0.000000	0.000000	0.000000	-1.033515	0.000000	0.320711	0.000000	0.000000	0.000000
0.031000	0.000000	0.000000	0.000000	-0.415137	0.000000	0.223561	0.000000	0.000000	0.000000	0.000000	0.000000	0.000000	-1.008680	0.000000	0.323699	0.000000	0.000000	0.000000
0.032000	0.000000	0.000000	0.000000	-0.392435	0.000000	0.221718	0.000000	0.000000	0.000000	0.000000	0.000000	0.000000	-0.992003	0.000000	0.325706	0.000000	0.000000	0.000000
0.033000	0.000000	0.000000	0.000000	-0.376444	0.000000	0.220420	0.000000	0.000000	0.000000	0.000000	0.000000	0.000000	-0.980007	0.000000	0.327150	0.000000	0.000000	0.000000
0.034000	0.000000	0.000000	0.000000	-0.364548	0.000000	0.219454	0.000000	0.000000	0.000000	0.000000	0.000000	0.000000	-0.970948	0.000000	0.328240	0.000000	0.000000	0.000000
0.035000	0.000000	0.000000	0.000000	-0.355335	0.000000	0.218707	0.000000	0.000000	0.000000	0.000000	0.000000	0.000000	-0.963849	0.000000	0.329095	0.000000	0.000000	0.000000
0.036000	0.000000	0.000000	0.000000	-0.347975	0.000000	0.218109	0.000000	0.000000	0.000000	0.000000	0.000000	0.000000	-0.958126	0.000000	0.329783	0.000000	0.000000	0.000000
0.037000	0.000000	0.000000	0.000000	-0.341948	0.000000	0.217620	0.000000	0.000000	0.000000	0.000000	0.000000	0.000000	-0.953405	0.000000	0.330352	0.000000	0.000000	0.000000
0.038000	0.000000	0.000000	0.000000	-0.336911	0.000000	0.217211	0.000000	0.000000	0.000000	0.000000	0.000000	0.000000	-0.949435	0.000000	0.330829	0.000000	0.000000	0.000000
0.039000	0.000000	0.000000	0.000000	-0.332630	0.000000	0.216864	0.000000	0.000000	0.000000	0.000000	0.000000	0.000000	-0.946044	0.000000	0.331238	0.000000	0.000000	0.000000
0.040000	0.000000	0.000000	0.000000	-0.328940	0.000000	0.216564	0.000000	0.000000	0.000000	0.000000	0.000000	0.000000	-0.943107	0.000000	0.331591	0.000000	0.000000	0.000000
0.041000	0.000000	0.000000	0.000000	-0.325719	0.000000	0.216303	0.000000	0.000000	0.000000	0.000000	0.000000	0.000000	-0.940533	0.000000	0.331901	0.000000	0.000000	0.000000
0.042000	0.000000	0.000000	0.000000	-0.322877	0.000000	0.216072	0.000000	0.000000	0.000000	0.000000	0.000000	0.000000	-0.938255	0.000000	0.332175	0.000000	0.000000	0.000000
0.043000	0.000000	0.000000	0.000000	-0.320346	0.000000	0.215866	0.000000	0.000000	0.000000	0.000000	0.000000	0.000000	-0.936220	0.000000	0.332420	0.000000	0.000000	0.000000
0.044000	0.000000	0.000000	0.000000	-0.318072	0.000000	0.215682	0.000000	0.000000	0.000000	0.000000	0.000000	0.000000	-0.934387	0.000000	0.332640	0.000000	0.000000	0.000000
0.045000	0.000000	0.000000	0.000000	-0.316015	0.000000	0.215515	0.000000	0.000000	0.000000	0.000000	0.000000	0.000000	-0.932725	0.000000	0.332841	0.000000	0.000000	0.000000
0.046000	0.000000	0.000000	0.000000	-0.314140	0.000000	0.215363	0.000000	0.000000	0.000000	0.000000	0.000000	0.000000	-0.931206	0.000000	0.333023	0.000000	0.000000	0.000000
0.047000	0.000000	0.000000	0.000000	-0.312420	0.000000	0.215223	0.000000	0.000000	0.000000	0.000000	0.000000	0.000000	-0.929810	0.000000	0.333191	0.000000	0.000000	0.000000
0.048000	0.000000	0.000000	0.000000	-0.310835	0.000000	0.215094	0.000000	0.000000	0.000000	0.000000	0.000000	0.000000	-0.928521	0.000000	0.333346	0.000000	0.000000	0.000000
0.049000	0.000000	0.000000	0.000000	-0.309365	0.000000	0.214975	0.000000	0.000000	0.000000	0.000000	0.000000	0.000000	-0.927324	0.000000	0.333490	0.000000	0.000000	0.000000
0.050000	0.000000	0.000000	0.000000	-0.307995	0.000000	0.214864	0.000000	0.000000	0.000000	0.000000	0.000000	0.000000	-0.926206	0.000000	0.333625	0.000000	0.000000	0.000000
0.051000	0.000000	0.000000	0.000000	-0.306713	0.000000	0.214760	0.000000	0.000000	0.000000	0.000000	0.000000	0.000000	-0.925159	0.000000	0.333751	0.000000	0.000000	0.000000
0.052000	0.000000	0.000000	0.000000	-0.305508	0.000000	0.214662	0.000000	0.000000	0.000000	0.000000	0.000000	0.000000	-0.924173	0.000000	0.333870	0.000000	0.000000	0.000000
0.053000	0.000000	0.000000	0.000000	-0.304371	0.000000	0.214570	0.000000	0.000000	0.000000	0.000000	0.000000	0.000000	-0.923241	0.000000	0.333982	0.000000	0.000000	0.000000
0.054000	0.000000	0.000000	0.000000	-0.303294	0.000000	0.214482	0.000000	0.000000	0.000000	0.000000	0.000000	0.000000	-0.922358	0.000000	0.334088	0.000000	0.000000	0.000000
0.055000	0.000000	0.000000	0.000000	-0.302270	0.000000	0.214399	0.000000	0.000000	0.000000	0.000000	0.000000	0.000000	-0.921517	0.000000	0.334189	0.000000	0.000000	0.000000
0.056000	0.000000	0.000000	0.000000	-0.301293	0.000000	0.214320	0.000000	0.000000	0.000000	0.000000	0.000000	0.000000	-0.920714	0.000000	0.334286	0.000000	0.000000	0.000000
